<svg xmlns="http://www.w3.org/2000/svg" width="167" height="74" fill="none" xmlns:v="https://vecta.io/nano"><path d="M52.933 48.502c-3.999-3.785-9.914-26.044-10.762-29.339a2.25 2.25 0 0 0 1.16-.303c.469-.275.823-.708.999-1.221a2.26 2.26 0 0 0-.042-1.575c-.203-.503-.58-.917-1.063-1.167s-1.04-.318-1.569-.193a2.27 2.27 0 0 0-1.315.874 2.26 2.26 0 0 0 .248 2.945c.388.38.9.608 1.443.644-.158 2.116-.763 11.788.928 16.835-4.555-3.369-11.133-12.132-12.464-13.932a2.32 2.32 0 0 0 1.077-1.396 2.31 2.31 0 0 0-.218-1.748c-.301-.531-.8-.923-1.388-1.09a2.33 2.33 0 0 0-1.756.197 2.32 2.32 0 0 0-1.11 1.371 2.31 2.31 0 0 0 .178 1.753c.288.538.778.941 1.362 1.122a2.33 2.33 0 0 0 1.76-.157c.865 2.233 5.244 13.707 5.71 17.429-2.742-3.931-10.966-7.609-12.657-8.336.253-.483.323-1.041.196-1.572a2.26 2.26 0 0 0-.887-1.314c-.445-.317-.99-.463-1.534-.412a2.27 2.27 0 0 0-1.428.693 2.26 2.26 0 0 0-.622 1.457c-.024.545.15 1.08.49 1.507a2.27 2.27 0 0 0 1.361.816c.538.099 1.093.002 1.564-.275a2.24 2.24 0 0 0 .796-.783c2.134 2.201 17.802 18.554 18.526 25.295a20.55 20.55 0 0 0 11.017-8.125zm-10.465.894c-.35.205-.753.302-1.159.278s-.794-.166-1.118-.41-.568-.578-.701-.961a2.04 2.04 0 0 1-.047-1.187c.102-.392.319-.744.622-1.013s.68-.442 1.082-.498a2.06 2.06 0 0 1 1.177.186 2.05 2.05 0 0 1 .875.806 2.04 2.04 0 0 1 .216 1.55c-.137.525-.478.974-.947 1.249zm4.986-2.917c-.35.205-.753.302-1.159.279s-.795-.166-1.119-.41-.568-.578-.701-.961a2.04 2.04 0 0 1-.047-1.187c.102-.392.319-.744.623-1.013s.68-.442 1.082-.497a2.06 2.06 0 0 1 1.177.186 2.05 2.05 0 0 1 .875.807c.275.468.352 1.026.215 1.551a2.05 2.05 0 0 1-.946 1.25v-.004z" fill="#fbbd29"/><path d="M59.844 33.376a24.1 24.1 0 0 0-4.529-10.8c-2.375-3.175-5.498-5.718-9.093-7.406a4.35 4.35 0 0 1-.252 3.944c3.911 2.189 6.996 5.592 8.788 9.691s2.191 8.669 1.137 13.015-3.503 8.229-6.975 11.059a20.61 20.61 0 0 1-12.258 4.617c-4.481.166-8.894-1.133-12.567-3.698s-6.404-6.257-7.779-10.513-1.316-8.843.166-13.063a20.52 20.52 0 0 1 8.043-10.313 4.78 4.78 0 0 1 .882-2.619c.546-.768 1.306-1.358 2.186-1.698a4.82 4.82 0 0 1 2.762-.213 4.81 4.81 0 0 1 2.421 1.343c.013-.001.026-.001.039 0 1.658-.252 3.34-.301 5.01-.146a4.35 4.35 0 0 1 .619-1.937c.356-.588.847-1.084 1.432-1.447a24.18 24.18 0 0 0-7.608-.052C19.07 15.131 9.962 27.465 11.967 40.626S26.342 62.865 39.54 60.865s22.307-14.33 20.304-27.489z" fill="#34bef0"/><path d="M70.643 52.956c-.449-.37-.674-.925-.674-1.665V22.709c0-.74.224-1.303.674-1.689.473-.394 1.076-.599 1.692-.577.61-.025 1.207.181 1.67.577.434.386.651.949.65 1.689v28.583c0 .74-.216 1.295-.65 1.665-.469.383-1.064.581-1.67.555a2.57 2.57 0 0 1-1.692-.555zm30.941-22.107c.418.401.627.956.626 1.665v18.824a2.03 2.03 0 0 1-.154.857c-.112.271-.281.516-.496.716a2.43 2.43 0 0 1-1.716.601 2.18 2.18 0 0 1-1.577-.579 2.03 2.03 0 0 1-.603-1.548v-1.758a7.24 7.24 0 0 1-2.945 2.96 8.67 8.67 0 0 1-4.199 1.017c-5.506 0-8.258-3.022-8.257-9.065V32.514c0-.709.209-1.264.627-1.665s.998-.601 1.739-.601c.71 0 1.275.2 1.694.601s.628.956.625 1.665v11.979c0 1.82.371 3.162 1.113 4.024s1.886 1.294 3.433 1.295c1.823 0 3.285-.586 4.385-1.758s1.648-2.729 1.646-4.671V32.514a2.17 2.17 0 0 1 .15-.889c.112-.283.282-.539.499-.752.23-.213.5-.377.795-.485a2.37 2.37 0 0 1 .921-.14c.711 0 1.276.2 1.694.601zm28.644 8.417v12.025c0 .71-.209 1.257-.627 1.641s-.997.577-1.738.579c-.713 0-1.278-.2-1.695-.601a2.14 2.14 0 0 1-.484-.743 2.13 2.13 0 0 1-.141-.875V39.498c0-1.912-.379-3.315-1.137-4.209s-1.941-1.341-3.548-1.341c-1.887 0-3.402.586-4.546 1.758s-1.717 2.744-1.717 4.718v10.869a2.13 2.13 0 0 1-.141.876 2.14 2.14 0 0 1-.486.743c-.417.4-.981.6-1.692.601a2.43 2.43 0 0 1-1.717-.601 2.1 2.1 0 0 1-.501-.739c-.112-.279-.163-.579-.148-.88V32.468a2.06 2.06 0 0 1 .161-.87 2.07 2.07 0 0 1 .511-.724c.46-.422 1.069-.647 1.694-.625a2.22 2.22 0 0 1 .873.135 2.19 2.19 0 0 1 .75.466c.203.208.361.454.464.724a2.15 2.15 0 0 1 .14.848v1.896a7.52 7.52 0 0 1 3.108-3.099 9.42 9.42 0 0 1 4.499-1.064c5.411 0 8.117 3.037 8.118 9.111zm7.792-14.291c-.262-.249-.469-.551-.605-.886s-.198-.695-.184-1.056a2.48 2.48 0 0 1 .789-1.92c.527-.477 1.238-.716 2.134-.716.866 0 1.57.239 2.111.716a2.44 2.44 0 0 1 .621.87 2.43 2.43 0 0 1 .19 1.051 2.53 2.53 0 0 1-.183 1.056c-.136.335-.343.637-.605.886-.525.493-1.236.74-2.134.74s-1.61-.247-2.134-.74zm.442 27.981c-.45-.37-.674-.925-.674-1.665V32.514c0-.74.224-1.303.674-1.689.473-.394 1.076-.599 1.692-.577a2.42 2.42 0 0 1 1.67.577c.434.386.651.949.649 1.689v18.777c0 .74-.216 1.295-.649 1.665a2.48 2.48 0 0 1-1.67.555c-.613.023-1.213-.174-1.692-.555zm11.944-27.981a2.53 2.53 0 0 1-.605-.886c-.136-.335-.198-.695-.184-1.056-.016-.358.047-.715.183-1.046a2.48 2.48 0 0 1 .606-.874c.525-.477 1.237-.716 2.134-.716.866 0 1.569.239 2.111.716a2.44 2.44 0 0 1 .811 1.92 2.53 2.53 0 0 1-.184 1.056 2.54 2.54 0 0 1-.604.886c-.525.493-1.236.74-2.134.74s-1.61-.247-2.134-.74zm.441 27.981c-.449-.37-.673-.925-.673-1.665V32.514c0-.74.224-1.303.673-1.689a2.5 2.5 0 0 1 1.693-.577 2.42 2.42 0 0 1 1.67.577c.433.386.649.949.649 1.689v18.777c0 .74-.216 1.295-.649 1.665a2.48 2.48 0 0 1-1.67.555 2.57 2.57 0 0 1-1.693-.555z" fill="#fbbd29"/></svg>